<svg width="444" height="445" viewBox="0 0 444 445" fill="none" xmlns="http://www.w3.org/2000/svg">
<rect x="0.0512695" y="0.698608" width="443.657" height="443.657" fill="white"/>
<path d="M261.88 236.456C317.108 236.456 361.88 191.684 361.88 136.456C361.88 81.2271 317.108 36.4556 261.88 36.4556V236.456ZM81.8796 236.456H261.88V36.4556H81.8796V236.456Z" fill="black"/>
<path fill-rule="evenodd" clip-rule="evenodd" d="M261.88 236.456H81.8796V36.4556H261.88C317.108 36.4556 361.88 81.2271 361.88 136.456C361.88 191.684 317.108 236.456 261.88 236.456Z" fill="#081365"/>
<path fill-rule="evenodd" clip-rule="evenodd" d="M236.808 208.598H81.8796V64.3127H236.808C284.344 64.3127 322.88 96.6122 322.88 136.456C322.88 176.299 284.344 208.598 236.808 208.598Z" fill="white"/>
<path fill-rule="evenodd" clip-rule="evenodd" d="M261.88 408.598H81.8796V208.598H261.88C317.108 208.598 361.88 253.37 361.88 308.598C361.88 363.827 317.108 408.598 261.88 408.598Z" fill="#081365"/>
<path fill-rule="evenodd" clip-rule="evenodd" d="M236.808 380.741H81.8796V236.456H236.808C284.344 236.456 322.88 268.755 322.88 308.598C322.88 348.442 284.344 380.741 236.808 380.741Z" fill="white"/>
<path fill-rule="evenodd" clip-rule="evenodd" d="M81.8796 182.832H235.617C265.866 182.832 291.88 162.811 291.88 136.456C291.88 110.1 265.866 90.0789 235.617 90.0789H81.8796V98.0789H235.617C263.096 98.0789 283.88 116.003 283.88 136.456C283.88 156.908 263.096 174.832 235.617 174.832H81.8796V182.832Z" fill="#7E7E7E"/>
<path fill-rule="evenodd" clip-rule="evenodd" d="M81.8796 354.975H235.617C265.866 354.975 291.88 334.954 291.88 308.598C291.88 282.242 265.866 262.222 235.617 262.222H81.8796V270.222H235.617C263.096 270.222 283.88 288.146 283.88 308.598C283.88 329.05 263.096 346.975 235.617 346.975H81.8796V354.975Z" fill="#7E7E7E"/>
<path fill-rule="evenodd" clip-rule="evenodd" d="M81.8796 312.598H283.563C287.34 312.598 290.401 310.808 290.401 308.598C290.401 306.389 287.34 304.598 283.563 304.598H81.8796V312.598Z" fill="#7E7E7E"/>
<path fill-rule="evenodd" clip-rule="evenodd" d="M81.8796 140.456H283.563C287.34 140.456 290.401 138.665 290.401 136.456C290.401 134.246 287.34 132.456 283.563 132.456H81.8796V140.456Z" fill="#7E7E7E"/>
</svg>
